<svg width="25" height="25" viewBox="0 0 24 24" fill="none" xmlns="http://www.w3.org/2000/svg">
    <path d="M20.5455 12.1657C20.5455 11.5612 20.487 10.9372 20.3895 10.3522H11.9458V13.8038H16.7819C16.5869 14.9153 15.9434 15.8903 14.9879 16.5143L17.874 18.7569C19.5705 17.1774 20.5455 14.8763 20.5455 12.1657Z" fill="#4280EF"/>
    <path d="M11.9459 20.9016C14.364 20.9016 16.392 20.1021 17.8741 18.737L14.988 16.514C14.1885 17.06 13.1549 17.372 11.9459 17.372C9.60585 17.372 7.63629 15.7925 6.91477 13.6864L3.95068 15.968C5.47173 18.9906 8.55282 20.9016 11.9459 20.9016Z" fill="#34A353"/>
    <path d="M6.91449 13.6674C6.54398 12.5558 6.54398 11.3468 6.91449 10.2353L3.95041 7.9342C2.68287 10.4693 2.68287 13.4529 3.95041 15.9684L6.91449 13.6674Z" fill="#F6B704"/>
    <path d="M11.9459 6.54944C13.2135 6.52994 14.4615 7.01746 15.378 7.89498L17.9326 5.32091C16.314 3.79986 14.169 2.98084 11.9459 3.00034C8.55282 3.00034 5.47173 4.9114 3.95068 7.93398L6.91477 10.235C7.63629 8.10949 9.60585 6.54944 11.9459 6.54944Z" fill="#E54335"/>
</svg>