<svg width="24" height="24" viewBox="0 0 24 24" fill="none" xmlns="http://www.w3.org/2000/svg">
<g id="u:lock">
<path id="Vector" d="M15.5001 9.9V8.5C15.5001 7.57174 15.1314 6.6815 14.475 6.02513C13.8186 5.36875 12.9284 5 12.0001 5C11.0718 5 10.1816 5.36875 9.52523 6.02513C8.86885 6.6815 8.5001 7.57174 8.5001 8.5V9.9C7.94315 9.9 7.409 10.1212 7.01518 10.5151C6.62135 10.9089 6.4001 11.443 6.4001 12V16.9C6.4001 17.457 6.62135 17.9911 7.01518 18.3849C7.409 18.7788 7.94315 19 8.5001 19H15.5001C16.0571 19 16.5912 18.7788 16.985 18.3849C17.3789 17.9911 17.6001 17.457 17.6001 16.9V12C17.6001 11.443 17.3789 10.9089 16.985 10.5151C16.5912 10.1212 16.0571 9.9 15.5001 9.9ZM9.9001 8.5C9.9001 7.94305 10.1213 7.4089 10.5152 7.01508C10.909 6.62125 11.4431 6.4 12.0001 6.4C12.5571 6.4 13.0912 6.62125 13.485 7.01508C13.8789 7.4089 14.1001 7.94305 14.1001 8.5V9.9H9.9001V8.5Z" fill="black"/>
</g>
</svg>
